<svg id="Group_41" data-name="Group 41" xmlns="http://www.w3.org/2000/svg" width="46.462" height="60.527" viewBox="0 0 46.462 60.527">
  <g id="Group_40" data-name="Group 40">
    <g id="Group_39" data-name="Group 39">
      <g id="Group_28" data-name="Group 28" transform="translate(7.739 0.005)">
        <g id="Group_27" data-name="Group 27">
          <path id="Path_103" data-name="Path 103" d="M177.786,847.426c.383-.117.721-.4.539-.829-.121-.285-.453-.27-.708-.27-1.09,0-1.5,1.288-1.477,2.215.037,1.774,2.554,2.313,3.8,1.444,1.152-.8,1.544-2.521,1.744-3.824a9.22,9.22,0,0,0,.041-1.541q-.158-9.064-.3-18.129c-.079-4.468-.329-8.995.394-13.427a21.37,21.37,0,0,1,1.624-5.4c.581-1.284,1.462-2.767,2.983-2.993h-.455a3.849,3.849,0,0,1,2.59,2.207,17.442,17.442,0,0,1,1.523,3.909,39.53,39.53,0,0,1,.98,10.866c-.022,2.385-.189,4.786.009,7.168.152,1.842.514,4.063,2,5.33a3.045,3.045,0,0,0,2,.7,3.211,3.211,0,0,0,2.4-1.7,14.393,14.393,0,0,0,1.594-3.605,24.635,24.635,0,0,0,1-5.192c.495-5.047.066-10.142.112-15.2q.047-5.1.093-10.2a11.967,11.967,0,0,1,.815-4.967,6.076,6.076,0,0,1,5.614-3.77l.394,0a6.772,6.772,0,0,0-4.92,1.552,7.658,7.658,0,0,0-2.117,3.945,24.1,24.1,0,0,0-.261,5.254q-.043,4.75-.086,9.5c-.055,6.131.741,12.479-.921,18.473a17.8,17.8,0,0,1-1.468,3.7,3.821,3.821,0,0,1-2.59,2.207h.455c-2.022-.272-2.93-2.134-3.348-3.93a23.014,23.014,0,0,1-.386-5.735,78.764,78.764,0,0,0-.242-10.863,23.058,23.058,0,0,0-1.187-5.15,11.7,11.7,0,0,0-1.662-3.28,2.864,2.864,0,0,0-2.282-1.222,3.22,3.22,0,0,0-2.4,1.7,14.462,14.462,0,0,0-1.593,3.605,24.849,24.849,0,0,0-1.005,5.19c-.481,4.937-.158,9.957-.072,14.908q.085,5.064.173,10.126.041,2.18.077,4.361a9.494,9.494,0,0,1-.035,1.546c-.191,1.356-.6,3.013-1.75,3.879a1.844,1.844,0,0,1-2.58-.513c-.622-.847-.279-3,.94-3.144-.147,0-.3,0-.446,0a.511.511,0,0,1,.528.492c.028.338-.33.521-.594.6.137-.043.315.041.455,0Z" transform="translate(-175.97 -790.043)" fill="#fff"/>
          <path id="Path_104" data-name="Path 104" d="M206.9,790.043h.2l.165,0v.17c0,.122-.075.156-.172.167v0l-.033,0c-.026,0-.052,0-.081,0l-.213,0-.066,0h-.084c-.175.005-.34.011-.505.023a5.988,5.988,0,0,0-4.867,3.646,11.748,11.748,0,0,0-.8,4.9l-.092,10.2c-.016,1.713.024,3.458.061,5.148a83.981,83.981,0,0,1-.173,10.073,24.691,24.691,0,0,1-1.012,5.228,14.592,14.592,0,0,1-1.615,3.647,3.367,3.367,0,0,1-2.425,1.772v0h-.455l0-.013a3.154,3.154,0,0,1-1.769-.727c-1.537-1.309-1.908-3.6-2.062-5.446a47.3,47.3,0,0,1-.051-5.145c.018-.669.033-1.361.04-2.04a39.024,39.024,0,0,0-.972-10.818,16.847,16.847,0,0,0-1.51-3.871A3.963,3.963,0,0,0,186.2,804.9c-1.332.346-2.122,1.786-2.6,2.842a21.349,21.349,0,0,0-1.609,5.356,62.1,62.1,0,0,0-.435,11.371c.015.677.031,1.349.044,2.024q.079,4.65.152,9.3.072,4.414.147,8.832c0,.079,0,.158,0,.237a7.591,7.591,0,0,1-.05,1.333c-.2,1.287-.6,3.094-1.814,3.937a2.684,2.684,0,0,1-1.534.439,2.286,2.286,0,0,1-2.532-2.018c-.018-.875.349-2.212,1.426-2.376v-.013h.128c.031,0,.061,0,.092,0h.075c.044,0,.088,0,.134,0h.022a.663.663,0,0,1,.642.936,1.048,1.048,0,0,1-.651.495.8.8,0,0,1-.305.006.491.491,0,0,0-.152-.007h0l-.1-.328c.149-.046.494-.18.472-.423a.351.351,0,0,0-.138-.271,1.507,1.507,0,0,0-.721.951,2.266,2.266,0,0,0,.147,1.854,1.862,1.862,0,0,0,1.455.775,1.457,1.457,0,0,0,.884-.3c.866-.653,1.416-1.885,1.686-3.766a7.529,7.529,0,0,0,.035-1.242c0-.093,0-.184,0-.276l-.251-14.488c-.02-1.124-.05-2.273-.083-3.381a92.787,92.787,0,0,1,.158-11.547,24.377,24.377,0,0,1,1.013-5.227,14.5,14.5,0,0,1,1.614-3.649,3.357,3.357,0,0,1,2.422-1.769l.035,0c.024,0,.051,0,.079,0h.016c.037,0,.07,0,.107,0h.22l0,.018a3.114,3.114,0,0,1,2.073,1.267,12.09,12.09,0,0,1,1.689,3.328,23.431,23.431,0,0,1,1.2,5.188,74.143,74.143,0,0,1,.255,10.268l-.013.618a22.946,22.946,0,0,0,.38,5.692c.506,2.174,1.5,3.436,2.939,3.753a3.777,3.777,0,0,0,2.227-2.071,17.442,17.442,0,0,0,1.455-3.666c1.227-4.434,1.1-9.134.985-13.678-.042-1.562-.084-3.178-.07-4.752l.085-9.5c0-.4,0-.81-.008-1.208a17.059,17.059,0,0,1,.277-4.084,7.8,7.8,0,0,1,2.165-4.034,6.366,6.366,0,0,1,4.025-1.571c.173-.016.351-.025.523-.025C206.71,790.043,206.8,790.043,206.9,790.043Zm-10.119,43.73a6.309,6.309,0,0,0,.552-.711A14.312,14.312,0,0,0,198.9,829.5a24.164,24.164,0,0,0,1-5.155,84.748,84.748,0,0,0,.174-10.033c-.04-1.692-.08-3.442-.064-5.158l.09-10.2a12.277,12.277,0,0,1,.833-5.034,6.7,6.7,0,0,1,1.433-2.092c-.026.022-.05.045-.074.066a7.449,7.449,0,0,0-2.062,3.86,16.639,16.639,0,0,0-.269,4c.007.4.011.814.009,1.216l-.085,9.5c-.014,1.57.028,3.181.068,4.742.121,4.568.241,9.292-1,13.776a17.6,17.6,0,0,1-1.484,3.74A6.719,6.719,0,0,1,196.78,833.773Zm-3.725.132a6.544,6.544,0,0,1-1.381-2.946,23.225,23.225,0,0,1-.387-5.776l.014-.618a74.354,74.354,0,0,0-.255-10.221,22.867,22.867,0,0,0-1.179-5.111A11.564,11.564,0,0,0,188.232,806a3.86,3.86,0,0,0-.306-.347,6.946,6.946,0,0,1,.783,1.142,17.188,17.188,0,0,1,1.541,3.948,39.428,39.428,0,0,1,.985,10.912c-.007.682-.025,1.376-.04,2.046a47.348,47.348,0,0,0,.048,5.108C191.386,830.535,191.723,832.656,193.055,833.905ZM180.1,849.637a6.179,6.179,0,0,0,1.409-3.5,6.978,6.978,0,0,0,.046-1.271c0-.079,0-.161,0-.241q-.076-4.414-.147-8.832-.073-4.648-.152-9.3c-.011-.671-.026-1.346-.044-2.02a62.409,62.409,0,0,1,.44-11.435,21.652,21.652,0,0,1,1.635-5.442,8.576,8.576,0,0,1,1.042-1.781,6.1,6.1,0,0,0-.5.65,14.293,14.293,0,0,0-1.571,3.564,24.093,24.093,0,0,0-1,5.154,92.473,92.473,0,0,0-.156,11.505c.03,1.108.063,2.258.081,3.381l.25,14.49.007.275a7.564,7.564,0,0,1-.042,1.3A6.935,6.935,0,0,1,180.1,849.637Zm-2.059-2.528a.455.455,0,0,0,.134-.158.344.344,0,0,0-.011-.288.222.222,0,0,0-.145-.13.9.9,0,0,1,.074.275A.614.614,0,0,1,178.044,847.109Zm-1.24,2.519a.632.632,0,0,1-.038-.053,2.589,2.589,0,0,1-.2-2.158,2.384,2.384,0,0,1,.225-.516,2.657,2.657,0,0,0-.477,1.639A1.482,1.482,0,0,0,176.8,849.628Z" transform="translate(-175.97 -790.043)" fill="#fff"/>
        </g>
      </g>
      <g id="Group_30" data-name="Group 30" transform="translate(38.305 0.005)">
        <g id="Group_29" data-name="Group 29">
          <path id="Path_105" data-name="Path 105" d="M206.9,790.215c-.259,0-.259,0,0,0s.257,0,0,0Z" transform="translate(-206.536 -790.043)" fill="#fff"/>
          <path id="Path_106" data-name="Path 106" d="M206.9,790.043c.064,0,.119,0,.167,0h.013c.119.012.183.047.183.17s-.064.158-.183.169v0h-.013a3.148,3.148,0,0,1-.336,0h-.009l0,0c-.119-.011-.185-.047-.185-.169s.066-.158.185-.17h.013C206.784,790.043,206.839,790.043,206.9,790.043Z" transform="translate(-206.536 -790.043)" fill="#fff"/>
        </g>
      </g>
      <g id="Group_32" data-name="Group 32" transform="translate(10.874)">
        <g id="Group_31" data-name="Group 31">
          <path id="Path_107" data-name="Path 107" d="M206.674,790.217a8.5,8.5,0,0,1,6.74,6.473,12.01,12.01,0,0,1,.048,4.6c-.125.729-.4,2.338-1.407,2.347.128,0,.258,0,.387,0-.886-.081-1.417-.983-2.189-1.329a1.836,1.836,0,0,0-.457,0c-.227.524.079,1.43-.372,1.781l-2.141,1.663q-2.031,1.572-4.073,3.134Q199.2,811.96,195.163,815c-5.326,4.025-10.661,8.04-15.952,12.112.092-.073.358.075.457,0,5.289-4.072,10.624-8.087,15.95-12.112q4.035-3.048,8.049-6.117,2.041-1.563,4.069-3.134c.657-.507,1.31-1.015,1.965-1.524.189-.147.354-.2.363-.444.006-.152.048-.308.048-.471a2.4,2.4,0,0,1,.141-1.005H209.8c.952.425,1.923,1.871,3.128,1.2a2.437,2.437,0,0,0,.853-1.559,11.118,11.118,0,0,0,.327-2.163,9.744,9.744,0,0,0-1.576-6.163,8.6,8.6,0,0,0-5.4-3.407c-.148-.028-.313.027-.458,0Z" transform="translate(-179.105 -790.038)" fill="#fff"/>
          <path id="Path_108" data-name="Path 108" d="M207.035,790.038a.6.6,0,0,1,.127.012,8.7,8.7,0,0,1,5.505,3.477,9.869,9.869,0,0,1,1.608,6.269,11.407,11.407,0,0,1-.331,2.2,2.563,2.563,0,0,1-.939,1.663,1.473,1.473,0,0,1-.721.2,2.988,2.988,0,0,1-1.71-.826l-.275-.207a3.861,3.861,0,0,0-.015.492,2.708,2.708,0,0,1-.027.285c-.008.069-.017.131-.019.192a.583.583,0,0,1-.326.495c-.031.023-.068.048-.1.078q-.979.764-1.963,1.524c-1.348,1.043-2.717,2.1-4.073,3.135-2.319,1.774-4.8,3.66-8.048,6.117l-2.862,2.161c-4.3,3.249-8.746,6.608-13.09,9.951a.312.312,0,0,1-.187.056.946.946,0,0,1-.184-.025.915.915,0,0,0-.112-.018.091.091,0,0,0,.026-.013l-.209-.272c4.311-3.317,8.722-6.65,12.989-9.874l2.965-2.238c2.4-1.814,5.232-3.959,8.046-6.115,1.505-1.153,2.837-2.179,4.073-3.135q1.071-.831,2.141-1.664c.2-.156.2-.5.206-.868a3.539,3.539,0,0,1,.042-.606h-.033l.1-.238v0l.071-.157.105.05a1.165,1.165,0,0,1,.185-.009l.147,0,.018-.043.156.069,0,0a4.047,4.047,0,0,1,.9.625,2.759,2.759,0,0,0,1.036.653c.7-.224.936-1.585,1.035-2.172a11.887,11.887,0,0,0-.044-4.53,8.364,8.364,0,0,0-6.608-6.344l.064-.334a.693.693,0,0,0,.18-.005C206.932,790.042,206.984,790.038,207.035,790.038Zm5.977,13.2a2.93,2.93,0,0,0,.6-1.328,10.677,10.677,0,0,0,.318-2.129,9.533,9.533,0,0,0-1.543-6.056,7.677,7.677,0,0,0-1.268-1.407,8.589,8.589,0,0,1,2.464,4.339,12.229,12.229,0,0,1,.049,4.662A5.2,5.2,0,0,1,213.012,803.234Zm-3.027-.631c-.029-.016-.055-.033-.084-.048a3.114,3.114,0,0,0-.033.532,2.013,2.013,0,0,1-.151.921l0,0c.132-.093.169-.121.171-.227.005-.078.016-.152.027-.226a1.8,1.8,0,0,0,.022-.238A3.924,3.924,0,0,1,209.985,802.6Z" transform="translate(-179.105 -790.038)" fill="#fff"/>
        </g>
      </g>
      <g id="Group_34" data-name="Group 34" transform="translate(7.766 36.31)">
        <g id="Group_33" data-name="Group 33">
          <path id="Path_109" data-name="Path 109" d="M179.547,826.859a.633.633,0,0,1-.411.256h.455c-.82-.139-1.5-.685-2.367-.584-.8.094-.6.995-.4,1.517a1.138,1.138,0,0,1,.02,1.052,10.665,10.665,0,0,1-.708.828c.048-.068.406.075.457,0,.209-.3.492-.532.708-.828a1.088,1.088,0,0,0-.02-1.052c-.2-.522-.409-1.423.4-1.517h-.427c.735.011,2.108,1.15,2.748.328-.057.071-.4-.076-.455,0Z" transform="translate(-175.997 -826.348)" fill="#fff"/>
          <path id="Path_110" data-name="Path 110" d="M177.437,826.348a1.941,1.941,0,0,1,.228.013h.016l.006,0a4.19,4.19,0,0,1,1.045.306c.184.07.373.144.562.2a.613.613,0,0,0,.117-.117.247.247,0,0,1,.206-.089.984.984,0,0,1,.194.027,1.158,1.158,0,0,0,.125.017.118.118,0,0,0-.068.045h0l.268.211h0a.929.929,0,0,1-.771.363,3.475,3.475,0,0,1-1.251-.355,5.618,5.618,0,0,0-.6-.224.356.356,0,0,0-.187.179,1.533,1.533,0,0,0,.114,1.06,1.254,1.254,0,0,1,0,1.213,4.262,4.262,0,0,1-.354.415,3.779,3.779,0,0,0-.349.411.24.24,0,0,1-.211.1,1.248,1.248,0,0,1-.194-.023.937.937,0,0,0-.129-.019.138.138,0,0,0,.076-.053h0l-.281-.2h0a3.148,3.148,0,0,1,.339-.384,1.957,1.957,0,0,0,.358-.428.967.967,0,0,0-.029-.909,1.741,1.741,0,0,1-.072-1.39.771.771,0,0,1,.611-.36A2.015,2.015,0,0,1,177.437,826.348Zm-.482,2.9a2.911,2.911,0,0,0,.207-.25c.18-.25.084-.564-.04-.893a1.855,1.855,0,0,1-.1-1.327c0-.007.007-.011.009-.016a.347.347,0,0,0-.139.132,1.385,1.385,0,0,0,.1,1.087,1.309,1.309,0,0,1,.011,1.2A.736.736,0,0,1,176.955,829.251Z" transform="translate(-175.997 -826.348)" fill="#fff"/>
        </g>
      </g>
      <g id="Group_36" data-name="Group 36" transform="translate(0 13.374)">
        <g id="Group_35" data-name="Group 35">
          <path id="Path_111" data-name="Path 111" d="M175.1,824.985c.02.571.073,1.906-.608,2.13h.455a4.218,4.218,0,0,1-1.091-.474,3.75,3.75,0,0,0-1.426-.411,5.171,5.171,0,0,0-3.731,1.455h.458c.96-.961,2.044-1.786,3.092-2.65l7.081-5.831q8-6.59,15.989-13.177c.978-.806,1.98-1.588,2.937-2.42H197.8a13.2,13.2,0,0,0-3.653,4.325,3.632,3.632,0,0,0,1.4,4.592,7.81,7.81,0,0,0,4.135,1.011c2.077-.013,3.98-.869,5.932-1.484-.138.044-.318-.044-.457,0-1.9.6-3.956,1.642-6,1.444a6.433,6.433,0,0,1-4.034-1.677,3.882,3.882,0,0,1-.253-4.453,14.8,14.8,0,0,1,3.388-3.758c-.082.073-.37-.076-.458,0-3.444,3-7.056,5.817-10.581,8.72q-7.812,6.441-15.629,12.879c-.983.806-1.99,1.581-2.889,2.479.077-.077.37.072.458,0,.82-.687,2.02-1.579,3.128-1.423a6.659,6.659,0,0,1,1.8.721c.327.149.844.259,1.116-.035a3.033,3.033,0,0,0,.358-1.963c0-.009-.455,0-.455,0Z" transform="translate(-168.231 -803.412)" fill="#fff"/>
          <path id="Path_112" data-name="Path 112" d="M197.88,803.412a.906.906,0,0,1,.171.022h.664l-.345.3c-.132.123-.268.244-.4.367a12.855,12.855,0,0,0-2.945,3.346,3.73,3.73,0,0,0,.226,4.253,6.31,6.31,0,0,0,3.924,1.625c.165.016.336.024.508.024a12.254,12.254,0,0,0,4.036-.977c.455-.167.929-.34,1.384-.484a.766.766,0,0,1,.306-.005.476.476,0,0,0,.152.005h0l.1.327c-.427.136-.86.285-1.279.429a14.817,14.817,0,0,1-4.7,1.063h-.068a7.956,7.956,0,0,1-4.157-1.037,3.819,3.819,0,0,1-1.464-4.8,6.594,6.594,0,0,1,.461-.9q-6.751,5.565-13.5,11.129l-8.584,7.069q-.352.294-.71.58c-.171.139-.343.277-.514.419a4.326,4.326,0,0,1,1.306-.1,3.881,3.881,0,0,1,1.492.429c.084.042.165.085.249.131.142.075.292.154.437.216.361-.372.325-1.381.31-1.825v-.021l.171-.008,0-.169.1,0,.256,0c.1,0,.263,0,.27.168l0,.013a3.137,3.137,0,0,1-.407,2.074.708.708,0,0,1-.362.211l-.011,0,0,.009h-.033a1.253,1.253,0,0,1-.407,0h0l-.042-.008a1.9,1.9,0,0,1-.455-.144c-.152-.069-.3-.144-.448-.218a4.184,4.184,0,0,0-1.3-.488,1.5,1.5,0,0,0-.235-.016,5.013,5.013,0,0,0-2.752,1.393l-.006.007a.426.426,0,0,1-.354.04h-.684l.36-.3a29.281,29.281,0,0,1,2.267-1.971c.206-.169.415-.338.622-.506q7.815-6.441,15.631-12.879c1.169-.963,2.365-1.932,3.521-2.869,2.339-1.89,4.755-3.847,7.054-5.849l.049-.044h.024A.331.331,0,0,1,197.88,803.412Zm-3.386,7.812a4.434,4.434,0,0,1,.225-3.939,7.556,7.556,0,0,1,.765-1.163A7.338,7.338,0,0,0,194.3,808,3.54,3.54,0,0,0,194.494,811.224Zm-19.488,15.664a.293.293,0,0,0,.066-.055,2.665,2.665,0,0,0,.321-1.68h-.115A3.562,3.562,0,0,1,175.006,826.888Z" transform="translate(-168.231 -803.412)" fill="#fff"/>
        </g>
      </g>
      <g id="Group_38" data-name="Group 38" transform="translate(5.622 15.581)">
        <g id="Group_37" data-name="Group 37">
          <path id="Path_113" data-name="Path 113" d="M214.13,805.813q-4.253,3.418-8.5,6.841-8.534,6.864-17.062,13.727-6.469,5.205-12.938,10.41l-.978.787-.207.166-.026.021c.347.017.437.013.274-.012a.358.358,0,0,1-.162-.085c-.174-.135-.024-.444.041-.587-.024.051-.43-.059-.457,0-.3.684.22.73.75.686.05,0,.123-.092.16-.122l1.2-.964q2.647-2.132,5.3-4.262,8.334-6.7,16.666-13.406,7.095-5.712,14.191-11.42c.734-.593,1.473-1.188,2.209-1.78-.09.072-.36-.077-.453,0Z" transform="translate(-173.853 -805.619)" fill="#fff"/>
          <path id="Path_114" data-name="Path 114" d="M214.212,805.619a1.009,1.009,0,0,1,.182.024.683.683,0,0,0,.115.02.059.059,0,0,0-.031.016l.215.268-39.562,31.831-.026.024a.4.4,0,0,1-.227.134c-.033.005-.066.005-.1.007-.013,0-.031,0-.055,0a2.025,2.025,0,0,1-.36-.013l-.407-.021.106-.084a.487.487,0,0,1-.134-.134.7.7,0,0,1,.028-.684.213.213,0,0,1,.22-.12,1.7,1.7,0,0,1,.2.019c.05.006.112.014.14.014a.151.151,0,0,0-.1.087l.312.138-.008.025a1.677,1.677,0,0,0-.075.191l39.38-31.686A.3.3,0,0,1,214.212,805.619Zm-39.894,31.629-.084-.011a.339.339,0,0,0-.017.271.127.127,0,0,0,.068.05A.693.693,0,0,1,174.318,837.248Z" transform="translate(-173.853 -805.619)" fill="#fff"/>
        </g>
      </g>
    </g>
  </g>
</svg>
